<?xml version="1.0" encoding="utf-8"?>
<!-- Generator: Adobe Illustrator 25.2.1, SVG Export Plug-In . SVG Version: 6.00 Build 0)  -->
<svg version="1.1" xmlns="http://www.w3.org/2000/svg" xmlns:xlink="http://www.w3.org/1999/xlink" x="0px" y="0px"
	 viewBox="0 0 3000 3000" style="enable-background:new 0 0 3000 3000;" xml:space="preserve">
<style type="text/css">
	.st0{font-family:'Poppins-SemiBold';}
	.st1{font-size:593.4345px;}
	.st2{letter-spacing:-91;}
	.st3{fill:none;stroke:#000000;stroke-width:54.162;stroke-miterlimit:10;}
</style>
<g id="Camada_1">
	<text transform="matrix(1 0 0 1 75.6841 1770.7129)" class="st0 st1 st2">musicRepo</text>
	<path d="M395.9,1431.4c-78.45,0-144.43-53.28-163.79-125.63c-3.75,14.02-5.78,28.74-5.78,43.95c0,93.65,75.92,169.58,169.58,169.58
		s169.58-75.92,169.58-169.58c0-15.2-2.03-29.93-5.78-43.95C540.33,1378.12,474.36,1431.4,395.9,1431.4z"/>
</g>
<g id="Camada_2">
</g>
<g id="Camada_3">
	<line class="st3" x1="2811.61" y1="1385.16" x2="2812.38" y2="1779.69"/>
	<path class="st3" d="M2720.68,1459.13v86.91c0,6.79,0.18,13.58,0.53,20.36l0,0c0.6,11.54,8.18,21.55,19.12,25.28l54.32,18.49"/>
	<path class="st3" d="M2902.16,1459.23v87.1c0,6.66-0.17,13.32-0.52,19.97l0,0c-0.61,11.66-8.26,21.77-19.31,25.53l-54.14,18.43"/>
	<polygon points="2720.97,1486.27 2772.24,1486.32 2746.64,1441.89 2721.04,1397.46 2695.37,1441.84 2669.69,1486.23 	"/>
	<polygon points="2902.5,1485.55 2953.77,1485.59 2928.17,1441.16 2902.57,1396.74 2876.9,1441.12 2851.22,1485.5 	"/>
	<polygon points="2811.58,1397.71 2862.85,1397.75 2837.25,1353.33 2811.65,1308.9 2785.98,1353.28 2760.3,1397.66 	"/>
</g>
</svg>
